<svg width="132" height="44" viewBox="0 0 132 44" fill="none" xmlns="http://www.w3.org/2000/svg">
<mask id="path-1-inside-1_21_30" fill="white">
<path d="M0 0.5H132V43.5H0V0.5Z"/>
</mask>
<path d="M0 4.5H132V-3.5H0V4.5Z" fill="#FEFEFE" mask="url(#path-1-inside-1_21_30)"/>
<path d="M12.512 33.82C10.848 33.82 9.312 33.532 7.904 32.956C6.496 32.3587 5.26933 31.5267 4.224 30.46C3.2 29.3933 2.4 28.1347 1.824 26.684C1.248 25.212 0.96 23.612 0.96 21.884C0.96 20.156 1.23733 18.5773 1.792 17.148C2.368 15.7187 3.168 14.4813 4.192 13.436C5.23733 12.3693 6.464 11.5587 7.872 11.004C9.28 10.428 10.8267 10.14 12.512 10.14C14.4107 10.14 16.1173 10.5133 17.632 11.26C19.168 11.9853 20.416 13.02 21.376 14.364C22.3573 15.6867 22.9547 17.244 23.168 19.036H18.368C18.0907 17.3933 17.4187 16.156 16.352 15.324C15.2853 14.4707 14.016 14.044 12.544 14.044C11.2427 14.044 10.0907 14.3533 9.088 14.972C8.10667 15.5907 7.33867 16.4867 6.784 17.66C6.22933 18.812 5.952 20.2093 5.952 21.852C5.952 23.516 6.22933 24.956 6.784 26.172C7.36 27.3667 8.14933 28.2947 9.152 28.956C10.1547 29.596 11.3067 29.916 12.608 29.916C13.9947 29.916 15.2213 29.5 16.288 28.668C17.3547 27.836 18.048 26.5987 18.368 24.956H23.232C22.9547 26.748 22.3253 28.316 21.344 29.66C20.3627 30.9827 19.1147 32.0067 17.6 32.732C16.0853 33.4573 14.3893 33.82 12.512 33.82ZM35.5358 33.5C35.4078 33.0307 35.3118 32.5293 35.2478 31.996C35.2051 31.4627 35.1838 30.844 35.1838 30.14H35.0558V22.428C35.0558 21.7667 34.8318 21.2547 34.3838 20.892C33.9571 20.508 33.3171 20.316 32.4638 20.316C31.6531 20.316 31.0024 20.4547 30.5118 20.732C30.0424 21.0093 29.7331 21.4147 29.5838 21.948H25.0078C25.2211 20.476 25.9784 19.26 27.2798 18.3C28.5811 17.34 30.3624 16.86 32.6238 16.86C34.9704 16.86 36.7624 17.3827 37.9998 18.428C39.2371 19.4733 39.8558 20.9773 39.8558 22.94V30.14C39.8558 30.6733 39.8878 31.2173 39.9518 31.772C40.0371 32.3053 40.1651 32.8813 40.3358 33.5H35.5358ZM29.8398 33.82C28.2184 33.82 26.9278 33.4147 25.9678 32.604C25.0078 31.772 24.5278 30.6733 24.5278 29.308C24.5278 27.7933 25.0931 26.5773 26.2238 25.66C27.3758 24.7213 28.9758 24.1133 31.0238 23.836L35.7918 23.164V25.948L31.8238 26.556C30.9704 26.684 30.3411 26.9187 29.9358 27.26C29.5304 27.6013 29.3278 28.0707 29.3278 28.668C29.3278 29.2013 29.5198 29.6067 29.9038 29.884C30.2878 30.1613 30.7998 30.3 31.4398 30.3C32.4424 30.3 33.2958 30.0333 33.9998 29.5C34.7038 28.9453 35.0558 28.3053 35.0558 27.58L35.5038 30.14C35.0344 31.356 34.3198 32.2733 33.3598 32.892C32.3998 33.5107 31.2264 33.82 29.8398 33.82ZM43.545 33.5V17.18H48.249V21.02H48.345V33.5H43.545ZM48.345 24.988L47.929 21.116C48.313 19.7293 48.9423 18.6733 49.817 17.948C50.6917 17.2227 51.7797 16.86 53.081 16.86C53.4863 16.86 53.785 16.9027 53.977 16.988V21.468C53.8703 21.4253 53.721 21.404 53.529 21.404C53.337 21.3827 53.1023 21.372 52.825 21.372C51.289 21.372 50.1583 21.6493 49.433 22.204C48.7077 22.7373 48.345 23.6653 48.345 24.988ZM56.295 33.5V17.18H60.999V21.02H61.095V33.5H56.295ZM67.271 33.5V23.132C67.271 22.3 67.047 21.692 66.599 21.308C66.1723 20.9027 65.5643 20.7 64.775 20.7C64.0923 20.7 63.463 20.86 62.887 21.18C62.3323 21.4787 61.895 21.916 61.575 22.492C61.255 23.0467 61.095 23.708 61.095 24.476L60.679 20.796C61.2123 19.6013 61.9803 18.652 62.983 17.948C64.007 17.2227 65.2337 16.86 66.663 16.86C68.3697 16.86 69.6923 17.34 70.631 18.3C71.591 19.26 72.071 20.4653 72.071 21.916V33.5H67.271ZM78.247 33.5V23.132C78.247 22.3 78.023 21.692 77.575 21.308C77.1483 20.9027 76.5403 20.7 75.751 20.7C75.0683 20.7 74.439 20.86 73.863 21.18C73.3083 21.4787 72.871 21.916 72.551 22.492C72.231 23.0467 72.071 23.708 72.071 24.476L71.335 20.796C71.8683 19.6013 72.6577 18.652 73.703 17.948C74.7697 17.2227 76.0497 16.86 77.543 16.86C79.3137 16.86 80.6683 17.3613 81.607 18.364C82.567 19.3453 83.047 20.636 83.047 22.236V33.5H78.247ZM86.5138 33.5V17.18H91.3138V33.5H86.5138ZM86.3538 15.004V9.82H91.4738V15.004H86.3538ZM95.1388 33.5V17.18H99.8428V21.02H99.9388V33.5H95.1388ZM106.499 33.5V23.388C106.499 22.492 106.264 21.82 105.795 21.372C105.347 20.924 104.685 20.7 103.811 20.7C103.064 20.7 102.392 20.8707 101.795 21.212C101.219 21.5533 100.76 22.0227 100.419 22.62C100.099 23.2173 99.9388 23.9213 99.9388 24.732L99.5228 20.796C100.056 19.6013 100.835 18.652 101.859 17.948C102.904 17.2227 104.184 16.86 105.699 16.86C107.512 16.86 108.899 17.372 109.859 18.396C110.819 19.3987 111.299 20.7533 111.299 22.46V33.5H106.499ZM122.631 33.82C120.818 33.82 119.239 33.468 117.895 32.764C116.551 32.0387 115.506 31.036 114.759 29.756C114.034 28.476 113.671 27.004 113.671 25.34C113.671 23.6547 114.034 22.1827 114.759 20.924C115.506 19.644 116.541 18.652 117.863 17.948C119.186 17.2227 120.722 16.86 122.471 16.86C124.157 16.86 125.618 17.2013 126.855 17.884C128.093 18.5667 129.053 19.516 129.735 20.732C130.418 21.948 130.759 23.3773 130.759 25.02C130.759 25.3613 130.749 25.6813 130.727 25.98C130.706 26.2573 130.674 26.524 130.631 26.78H116.487V23.612H126.759L125.927 24.188C125.927 22.8653 125.607 21.8947 124.967 21.276C124.349 20.636 123.495 20.316 122.407 20.316C121.149 20.316 120.167 20.7427 119.463 21.596C118.781 22.4493 118.439 23.7293 118.439 25.436C118.439 27.1 118.781 28.3373 119.463 29.148C120.167 29.9587 121.213 30.364 122.599 30.364C123.367 30.364 124.029 30.236 124.583 29.98C125.138 29.724 125.554 29.308 125.831 28.732H130.343C129.81 30.3107 128.893 31.5587 127.591 32.476C126.311 33.372 124.658 33.82 122.631 33.82Z" fill="white"/>
</svg>
