<svg width="16" height="20" viewBox="0 0 16 20" fill="none" xmlns="http://www.w3.org/2000/svg">
<path d="M15.1592 5.22538L10.1592 0.225385C10.0146 0.0807692 9.81923 0 9.61538 0H1.53846C0.688461 0 0 0.688462 0 1.53846V18.4615C0 19.3115 0.688461 20 1.53846 20H13.8462C14.6962 20 15.3846 19.3115 15.3846 18.4615V5.76923C15.3846 5.56538 15.3038 5.37 15.1592 5.22538ZM10 14.6154H3.84615C3.42154 14.6154 3.07692 14.2708 3.07692 13.8462C3.07692 13.4215 3.42154 13.0769 3.84615 13.0769H10C10.4246 13.0769 10.7692 13.4215 10.7692 13.8462C10.7692 14.2708 10.4246 14.6154 10 14.6154ZM11.5385 11.5385H3.84615C3.42154 11.5385 3.07692 11.1938 3.07692 10.7692C3.07692 10.3446 3.42154 10 3.84615 10H11.5385C11.9631 10 12.3077 10.3446 12.3077 10.7692C12.3077 11.1938 11.9631 11.5385 11.5385 11.5385ZM10 6.15385C9.57538 6.15385 9.23077 5.80923 9.23077 5.38462V1.46462L13.92 6.15385H10Z" fill="#878787"/>
</svg>
